<svg width="184" height="59" viewBox="0 0 184 59" fill="none" xmlns="http://www.w3.org/2000/svg">
<g clip-path="url(#clip0_224_19289)">
<path d="M48.5207 19.1246C48.4656 18.9923 48.337 18.9062 48.1944 18.9062H43.0744C42.9329 18.9062 42.805 18.991 42.7492 19.1219L34.1053 39.3807C34.005 39.6158 34.1763 39.8774 34.4304 39.8774H39.24C39.3858 39.8774 39.5167 39.7874 39.5697 39.6506L40.8547 36.3346C40.9077 36.1978 41.0386 36.1078 41.1844 36.1078H49.6973C49.844 36.1078 49.9755 36.1989 50.0279 36.3368L51.2857 39.6484C51.3381 39.7863 51.4695 39.8773 51.6162 39.8773H56.6375C56.8904 39.8773 57.0616 39.6181 56.9638 39.3835L48.5207 19.1246ZM47.8587 31.9794H43.0602C42.8112 31.9794 42.64 31.7273 42.7305 31.4938L45.1538 25.2404C45.2714 24.937 45.6985 24.9384 45.814 25.2426L48.1892 31.4961C48.2778 31.7292 48.1067 31.9794 47.8587 31.9794Z" fill="#695DFD"/>
<path d="M72.8322 33.3298C72.7252 33.1608 72.7742 32.932 72.9467 32.8317C73.3636 32.5892 73.7473 32.3108 74.0958 31.9945C75.6015 30.6285 76.355 28.7189 76.355 26.2659C76.355 23.9322 75.6015 22.1222 74.0958 20.836C72.5897 19.5493 70.4491 18.9062 67.6749 18.9062H58.6644C58.469 18.9062 58.3105 19.0657 58.3105 19.2623V39.5213C58.3105 39.7179 58.469 39.8773 58.6644 39.8773H63.397C63.5924 39.8773 63.7508 39.7179 63.7508 39.5213V34.3997C63.7508 34.203 63.9092 34.0436 64.1047 34.0436H67.6749C67.7076 34.0436 67.7391 34.0422 67.7715 34.0421L70.7263 39.6872C70.7875 39.8042 70.908 39.8773 71.0394 39.8773H76.3343C76.6136 39.8773 76.7828 39.5669 76.6327 39.3298L72.8322 33.3298ZM70.2611 28.8984C69.6467 29.457 68.7846 29.7361 67.6749 29.7361H64.1047C63.9092 29.7361 63.7508 29.5767 63.7508 29.3801V23.5704C63.7508 23.3737 63.9092 23.2143 64.1047 23.2143H67.6749C68.7846 23.2143 69.6467 23.4837 70.2611 24.0222C70.875 24.5606 71.1825 25.3584 71.1825 26.415C71.1825 27.5122 70.8751 28.3402 70.2611 28.8984Z" fill="#695DFD"/>
<path d="M93.3707 29.1225C92.7166 28.6539 92.0032 28.2696 91.2301 27.9704C90.4574 27.6716 89.6742 27.4122 88.8819 27.1928C88.0887 26.9734 87.3657 26.7545 86.7116 26.5345C86.0575 26.3151 85.5376 26.0411 85.1512 25.7119C84.7644 25.3828 84.5715 24.9592 84.5715 24.4404C84.5715 23.9222 84.7694 23.5385 85.1658 23.2887C85.5622 23.0395 86.0872 22.9146 86.7413 22.9146C87.316 22.9146 87.9846 23.0096 88.7478 23.1987C89.5109 23.3889 90.3037 23.6477 91.126 23.9768C91.8255 24.2568 92.4926 24.5835 93.1277 24.957C93.3074 25.0627 93.5371 24.9955 93.6271 24.8066L95.372 21.1419C95.4508 20.9765 95.395 20.7755 95.2387 20.6812C94.2097 20.0603 93.0223 19.5484 91.6762 19.1456C90.2092 18.7067 88.7131 18.4873 87.1874 18.4873C85.5225 18.4873 84.0611 18.7517 82.8026 19.28C81.5437 19.8084 80.5731 20.5566 79.8893 21.5238C79.2056 22.4914 78.8639 23.6229 78.8639 24.9192C78.8639 25.9961 79.0569 26.8934 79.4432 27.6114C79.83 28.3293 80.35 28.9127 81.0041 29.3617C81.6582 29.8101 82.3761 30.1797 83.1593 30.4684C83.942 30.758 84.7247 31.0068 85.5079 31.2166C86.2907 31.4259 87.0091 31.6403 87.6631 31.8597C88.3134 32.078 88.8363 32.3503 89.2324 32.6772C89.6058 32.9852 89.8251 33.4316 89.8326 33.9174C89.8423 34.5335 89.6092 34.9997 89.1346 35.3148C88.6684 35.6242 88.0294 35.7784 87.217 35.7784C86.5037 35.7784 85.6908 35.6439 84.7795 35.375C83.8677 35.1055 82.9659 34.7314 82.0742 34.2531C81.3224 33.8495 80.6339 33.3895 80.0088 32.8724C79.8315 32.7258 79.5667 32.7766 79.4635 32.9828L77.6849 36.5375C77.6097 36.6879 77.6471 36.873 77.778 36.978C78.5539 37.5997 79.4162 38.1418 80.3651 38.6056C81.4055 39.1142 82.5052 39.503 83.6647 39.7725C84.8242 40.0414 85.9882 40.1764 87.1578 40.1764C88.7036 40.1764 90.1102 39.9317 91.3788 39.4433C92.6468 38.9549 93.6576 38.2269 94.4112 37.2593C95.1637 36.2921 95.5405 35.101 95.5405 33.6844C95.5405 32.5878 95.3426 31.6701 94.9462 30.932C94.5493 30.1944 94.0248 29.5912 93.3707 29.1225Z" fill="#695DFD"/>
<path d="M121.091 18.9063H115.751C115.615 18.9063 115.492 18.9838 115.433 19.1059L109.525 31.2614L103.587 19.1053C103.528 18.9834 103.405 18.9062 103.27 18.9062H97.9281C97.7326 18.9062 97.5742 19.0657 97.5742 19.2623V39.5213C97.5742 39.7179 97.7326 39.8773 97.9281 39.8773H102.066C102.262 39.8773 102.42 39.7179 102.42 39.5213V28.0252C102.42 27.6455 102.932 27.5294 103.094 27.8724L107.675 37.5799C107.734 37.7041 107.858 37.7833 107.995 37.7833H111.054C111.191 37.7833 111.316 37.7038 111.374 37.5792L115.929 27.8736C116.091 27.5303 116.602 27.6452 116.603 28.0249L116.629 39.5221C116.629 39.7184 116.787 39.8774 116.983 39.8774H121.091C121.287 39.8774 121.445 39.7179 121.445 39.5213V19.2624C121.445 19.0657 121.287 18.9063 121.091 18.9063Z" fill="#695DFD"/>
<path d="M137.213 19.1246C137.157 18.9923 137.029 18.9062 136.886 18.9062H131.766C131.624 18.9062 131.496 18.991 131.441 19.1219L122.797 39.3807C122.696 39.6158 122.868 39.8774 123.122 39.8774H127.932C128.078 39.8774 128.209 39.7874 128.262 39.6506L129.547 36.3346C129.6 36.1978 129.73 36.1078 129.876 36.1078H138.389C138.536 36.1078 138.667 36.1989 138.72 36.3368L139.978 39.6484C140.03 39.7863 140.161 39.8773 140.308 39.8773H145.329C145.582 39.8773 145.753 39.6181 145.655 39.3835L137.213 19.1246ZM136.551 31.9794H131.752C131.503 31.9794 131.332 31.7273 131.422 31.4938L133.846 25.2404C133.963 24.937 134.39 24.9384 134.506 25.2426L136.881 31.4961C136.97 31.7292 136.799 31.9794 136.551 31.9794Z" fill="#695DFD"/>
<path d="M161.524 33.3298C161.417 33.1608 161.466 32.932 161.638 32.8317C162.055 32.5892 162.439 32.3108 162.787 31.9945C164.293 30.6285 165.046 28.7189 165.046 26.2659C165.046 23.9322 164.293 22.1222 162.787 20.836C161.281 19.5493 159.14 18.9062 156.366 18.9062H147.356C147.16 18.9062 147.002 19.0657 147.002 19.2623V39.5213C147.002 39.7179 147.16 39.8773 147.356 39.8773H152.088C152.284 39.8773 152.442 39.7179 152.442 39.5213V34.3997C152.442 34.203 152.601 34.0436 152.796 34.0436H156.366C156.399 34.0436 156.43 34.0422 156.463 34.0421L159.418 39.6872C159.479 39.8042 159.599 39.8773 159.731 39.8773H165.026C165.305 39.8773 165.474 39.5669 165.324 39.3298L161.524 33.3298ZM158.953 28.8984C158.338 29.457 157.476 29.7361 156.366 29.7361H152.796C152.601 29.7361 152.442 29.5767 152.442 29.3801V23.5704C152.442 23.3737 152.601 23.2143 152.796 23.2143H156.366C157.476 23.2143 158.338 23.4837 158.953 24.0222C159.566 24.5606 159.874 25.3584 159.874 26.415C159.874 27.5122 159.566 28.3402 158.953 28.8984Z" fill="#695DFD"/>
<path d="M183.847 22.978V19.2623C183.847 19.0657 183.688 18.9062 183.493 18.9062H166.334C166.139 18.9062 165.98 19.0657 165.98 19.2623V22.978C165.98 23.1746 166.139 23.334 166.334 23.334H171.81C172.005 23.334 172.164 23.4935 172.164 23.6901V39.5213C172.164 39.7179 172.322 39.8773 172.518 39.8773H177.25C177.446 39.8773 177.604 39.7179 177.604 39.5213V23.6901C177.604 23.4935 177.762 23.334 177.958 23.334H183.493C183.688 23.334 183.847 23.1746 183.847 22.978Z" fill="#695DFD"/>
<path d="M34.9782 32.2145C34.9975 32.1509 35.0133 32.0856 35.0291 32.0203H32.8013C32.675 32.0203 32.5329 32.0185 32.3873 32.0185C31.9295 32.0185 31.4418 32.0221 31.3208 32.0344C30.6419 32.105 30.0666 32.3204 29.5596 32.6929C29.3035 32.88 29.1053 33.1165 28.9141 33.346C28.8281 33.4502 28.7387 33.5561 28.6457 33.6567C28.0072 34.3417 27.1266 35.1219 25.7531 35.4573C25.4496 35.5315 25.1216 35.5844 24.7673 35.6092C23.8674 35.6727 23.0447 35.565 22.2886 35.279C22.1887 35.242 22.0904 35.2031 21.9922 35.159C21.2941 34.8448 20.652 34.3752 20.0626 33.7414C19.5188 33.1589 19.1031 32.5234 18.8172 31.8384C18.8066 31.8155 18.7961 31.7908 18.7874 31.766C18.4944 31.0052 18.3453 30.1932 18.34 29.3264V29.2876C18.34 29.2717 18.34 29.2576 18.3418 29.2417C18.3453 29.0793 18.3558 28.9134 18.3699 28.7474C18.4628 27.6935 18.7347 27.0139 18.9891 26.4878C19.9749 24.4524 21.7203 23.2026 23.7797 23.0561C23.906 23.0472 24.0288 23.0419 24.1516 23.0402C24.7076 23.0313 25.2426 23.0931 25.7531 23.2238C26.4022 23.3879 27.0091 23.6669 27.5739 24.0552C28.0195 24.3624 28.3843 24.7454 28.7369 25.1144C29.4246 25.8382 30.0753 26.5214 31.2787 26.6308C31.3997 26.6431 31.9102 26.6431 32.3874 26.6396H35.0537C35.0344 26.5514 35.0115 26.4631 34.987 26.3766C34.8607 25.8964 34.6976 25.4304 34.5029 24.9785C33.9363 23.6651 33.1399 22.5194 32.1155 21.5379C31.0893 20.5564 29.8964 19.7956 28.5335 19.2554C27.1705 18.7152 25.6724 18.4434 24.0411 18.4434C22.429 18.4434 20.938 18.7152 19.5644 19.2554C18.1909 19.7956 16.9911 20.5511 15.9667 21.522C14.9422 22.4947 14.1476 23.6404 13.5793 24.9608C13.0127 26.283 12.7285 27.7165 12.7285 29.2593C12.7285 30.8199 13.0127 32.2674 13.5793 33.5967C14.1476 34.9295 14.9423 36.091 15.9667 37.0832C16.9911 38.0735 18.1909 38.8467 19.5644 39.3957C20.938 39.9465 22.429 40.2219 24.0411 40.2219C25.6724 40.2219 27.1705 39.9465 28.5335 39.3957C29.8964 38.8467 31.0893 38.0735 32.1155 37.0832C33.1399 36.0911 33.9363 34.9295 34.5029 33.5967C34.6941 33.1483 34.8537 32.6876 34.9782 32.2145Z" fill="#695DFD"/>
<path d="M8.93197 29.2411C8.93197 27.9192 7.86326 26.8438 6.54973 26.8438H2.53458C1.22103 26.8438 0.152344 27.9193 0.152344 29.2411C0.152344 30.563 1.22105 31.6385 2.53458 31.6385H6.54973C7.86329 31.6385 8.93197 30.563 8.93197 29.2411Z" fill="#695DFD"/>
<path d="M5.83038 17.7301L8.90615 20.3277C9.33476 20.6892 9.87827 20.8882 10.4366 20.8882C11.143 20.8882 11.8084 20.5762 12.2624 20.0318C12.6714 19.5413 12.8661 18.9197 12.8105 18.282C12.7552 17.644 12.4562 17.0662 11.9686 16.6544L8.89286 14.0568C8.46437 13.6953 7.92074 13.4961 7.36245 13.4961C6.65587 13.4961 5.99045 13.8084 5.53663 14.3527C4.69247 15.3653 4.82415 16.8806 5.83038 17.7301Z" fill="#695DFD"/>
<path d="M10.4365 37.5938C9.87791 37.5938 9.33441 37.7929 8.90617 38.1547L5.83041 40.7521C4.82418 41.6016 4.69247 43.1169 5.53663 44.1295C5.99045 44.6738 6.65587 44.9861 7.36232 44.9861C7.921 44.9861 8.46463 44.7869 8.89286 44.4249L11.9686 41.8278C12.4562 41.4163 12.7552 40.8382 12.8105 40.1999C12.8661 39.5622 12.6714 38.9409 12.2624 38.4504C11.8086 37.906 11.1432 37.5938 10.4365 37.5938Z" fill="#695DFD"/>
</g>
<defs>
<clipPath id="clip0_224_19289">
<rect width="183.694" height="58.4821" fill="white" transform="translate(0.152344)"/>
</clipPath>
</defs>
</svg>
